<svg height="511pt" viewBox="-5 0 511 511.9995" width="511pt" xmlns="http://www.w3.org/2000/svg"><path d="m.921875 253.742188s277.992187 115.382812 488.292969 38.480468c.847656-8.292968 1.285156-16.707031 1.285156-25.222656 0-135.3125-109.6875-245.003906-245-245.003906-130.890625 0-237.800781 102.644531-244.644531 231.828125zm0 0" fill="#2299f2"/><path d="m106.757812.847656c-40.917968 5.578125-44.808593 28.777344-44.824218 37.289063-.003906 1.785156-.996094 3.4375-2.601563 4.21875-21.285156 10.355469-9.808593 62.257812-9.808593 62.257812 2.136718.140625 4.375 1.007813 6.042968 1.816407.410156-2.542969 2.078125-7.046876 3.019532-9.46875.71875-1.84375 1.613281-3.707032 2.738281-5.464844 1.945312-3.054688 2.832031-6.65625 2.566406-10.257813-.765625-10.410156-1.394531-29.925781 12.34375-36.109375 11.644531-5.238281 25.925781-2.203125 35.03125.824219 5.914063 1.964844 12.320313 1.964844 18.234375 0 9.105469-3.027344 23.386719-6.0625 35.027344-.824219 13.703125 6.167969 13.109375 25.582032 12.351562 36.019532-.261718 3.628906.601563 7.269531 2.5625 10.347656 1.160156 1.816406 2.078125 3.742187 2.804688 5.644531.90625 2.363281 2.550781 6.808594 2.949218 9.289063 2.105469-1.019532 5.109376-2.128907 7.683594-1.765626.3125-10.914062 1.320313-24.675781 1.320313-24.675781 12.128906-59.390625-43.382813-85.140625-87.441407-79.140625zm0 0" fill="#3c2b8e"/><path d="m61.933594 38.136719c-.003906 1.785156-.996094 3.4375-2.601563 4.21875-21.285156 10.355469-9.808593 62.257812-9.808593 62.257812 2.136718.140625 4.375 1.007813 6.042968 1.816407.410156-2.542969 2.078125-7.046876 3.019532-9.46875.71875-1.84375 1.613281-3.707032 2.738281-5.464844 1.945312-3.054688 2.832031-6.65625 2.566406-10.257813-.765625-10.410156-1.394531-29.925781 12.347656-36.109375 9.144531-4.113281 19.90625-3.121094 28.519531-1.039062-.167968-.371094-.320312-.75-.503906-1.121094-12.691406-25.609375 2.503906-42.121094 2.503906-42.121094-40.917968 5.578125-44.808593 28.777344-44.824218 37.289063zm0 0" fill="#2c217c"/><path d="m141.371094 488.808594v-172.773438c0-12.617187 3.039062-25.042968 8.859375-36.238281l1.148437-2.210937c15.585938-24.644532 16.65625-45.933594 15.984375-56.144532-4.585937-8.199218-5.949219-19.445312-6.238281-27.824218-11.046875 12.871093-23.636719 21.640624-40.742188 21.640624-17.105468 0-29.6875-8.769531-40.742187-21.640624-.289063 8.382812-1.652344 19.625-6.238281 27.824218-.671875 10.214844.402344 31.5 15.984375 56.144532l1.152343 2.210937c5.816407 11.195313 8.855469 23.621094 8.855469 36.238281v147.632813c13.050781 9.714843 27.109375 18.148437 41.976563 25.140625zm0 0" fill="#fe9d9a"/><path d="m95.007812 290.175781c1.222657 3.503907 2.191407 7.085938 2.902344 10.722657 13.9375-26.738282 18.753906-54.921876 19.375-85.742188-15.714844-1.003906-27.484375-9.703125-37.644531-21.539062-.3125 9.042968-1.820313 19.925781-6.238281 27.824218-2.140625 32.5625 16.40625 53.738282 21.605468 68.734375zm0 0" fill="#f98f8f"/><path d="m120.382812 299.261719c-18.417968 0-34.785156-8.722657-45.238281-22.25h-4.25v161.832031c27.28125 27.714844 61.105469 48.964844 98.980469 61.242188v-223.078126h-4.253906c-10.449219 13.53125-26.820313 22.253907-45.238282 22.253907zm0 0" fill="#d9f5ff"/><path d="m120.382812 299.261719c-18.417968 0-34.785156-8.722657-45.238281-22.25h-4.25v25.1875c13.703125 10.550781 30.855469 16.84375 49.488281 16.84375 18.632813 0 35.789063-6.292969 49.492188-16.84375v-25.191407h-4.253906c-10.449219 13.53125-26.820313 22.253907-45.238282 22.253907zm0 0" fill="#abe4fe"/><path d="m183.25 97.140625c-.730469-1.902344-1.648438-3.828125-2.804688-5.644531-1.960937-3.078125-2.824218-6.71875-2.5625-10.347656.757813-10.4375.351563-30.851563-13.351562-37.019532-11.640625-5.238281-25.921875-2.203125-35.027344.824219-5.914062 1.96875-12.324218 1.96875-18.238281 0-9.109375-3.027344-23.386719-6.0625-35.027344-.824219-13.742187 6.183594-14.113281 26.699219-13.347656 37.109375.265625 3.601563-.621094 7.203125-2.566406 10.257813-1.125 1.761718-2.019531 3.625-2.738281 5.46875-2.328126 5.980468-3.007813 12.464844-2.136719 18.816406l3.242187 23.597656c0 33.921875 18.105469 56.980469 33.511719 68.941406 8.039063 6.246094 17.960937 9.636719 28.179687 9.636719s20.140626-3.390625 28.183594-9.636719c15.402344-11.960937 33.511719-35.019531 33.511719-68.941406l3.238281-23.589844c.863282-6.289062.207032-12.714843-2.066406-18.648437zm0 0" fill="#ffbaae"/><path d="m114.113281 208.320312c-11.792969-11.960937-25.65625-35.019531-25.65625-68.941406l-2.480469-23.597656c-.667968-6.351562-.148437-12.835938 1.632813-18.820312.550781-1.84375 1.238281-3.707032 2.09375-5.464844 1.492187-3.054688 2.171875-6.65625 1.96875-10.257813-.585937-10.410156-.304687-30.925781 10.21875-37.109375.769531-.453125 1.5625-.824218 2.363281-1.160156-8.527344-1.996094-19.050781-2.871094-28.015625 1.160156-13.742187 6.183594-14.113281 26.699219-13.347656 37.109375.265625 3.601563-.621094 7.203125-2.566406 10.257813-1.125 1.757812-2.019531 3.621094-2.738281 5.464844-2.328126 5.984374-3.007813 12.46875-2.136719 18.820312l3.242187 23.597656c0 33.921875 18.109375 56.980469 33.511719 68.941406 8.039063 6.242188 17.960937 9.636719 28.179687 9.636719 2.929688 0 5.828126-.289062 8.667969-.832031-5.417969-1.355469-10.546875-4.347656-14.9375-8.804688zm0 0" fill="#fe9d9a"/><path d="m197.480469 104.082031c-3.1875-2.921875-9.535157-1.441406-12.28125.347657.601562 3.742187.636719 7.574218.117187 11.355468l-3.238281 23.59375c0 1.902344-.0625 3.765625-.171875 5.597656 7.898438 2.382813 11.824219-4.707031 12.484375-9.570312.285156-2.097656.75-4.160156 1.394531-6.175781 2.101563-6.5625 9.679688-17.832031 1.695313-25.148438zm0 0" fill="#f98f8f"/><path d="m43.289062 104.082031c3.1875-2.921875 9.535157-1.441406 12.277344.347657-.601562 3.742187-.632812 7.574218-.113281 11.355468l3.238281 23.59375c0 1.902344.058594 3.765625.167969 5.597656-7.898437 2.382813-11.820313-4.707031-12.480469-9.570312-.285156-2.097656-.75-4.160156-1.394531-6.175781-2.101563-6.5625-9.679687-17.832031-1.695313-25.148438zm0 0" fill="#f98f8f"/><path d="m91.386719 277.585938c-21.878907-34.597657-15.15625-62.59375-15.15625-62.59375-1.417969 4.210937-3.398438 8.101562-6.117188 11.117187-.242187.265625-.472656.546875-.726562.800781-8.4375 1.949219-16.898438 4.617188-24.410157 7.613282-24.792968 9.800781-29.351562 16.792968-38.355468 17.527343-1.964844.160157-3.855469.398438-5.699219.691407-.269531 4.71875-.421875 9.46875-.421875 14.257812 0 81.441406 39.75 153.585938 100.894531 198.136719v-149.101563c0-12.617187-3.039062-25.042968-8.859375-36.238281zm0 0" fill="#fbc840"/><path d="m91.386719 277.585938c-.121094-.195313-.230469-.382813-.351563-.578126l-10.757812 9.652344s13.484375 11.6875 21.117187 29.375c0-12.617187-3.039062-25.042968-8.859375-36.238281zm0 0" fill="#f9b50b"/><path d="m76.230469 214.992188s-16.625 3.921874-25.832031 17.484374c0 23.648438 7.65625 46.097657 12.503906 57.941407 1.792968 4.371093 7.339844 5.6875 10.894531 2.574219l17.589844-15.40625c-18.652344-41.71875-15.15625-62.59375-15.15625-62.59375zm0 0" fill="#ffebb3"/><path d="m234.144531 252.050781c-9.003906-.734375-13.5625-7.726562-38.355469-17.527343-7.511718-2.996094-15.976562-5.664063-24.414062-7.613282-.253906-.253906-.484375-.535156-.726562-.800781-2.714844-3.015625-4.695313-6.902344-6.113282-11.117187 0 0 6.71875 27.996093-15.15625 62.59375l-1.152344 2.210937c-5.816406 11.195313-8.855468 23.621094-8.855468 36.238281v171.847656c19.152344 9.214844 39.6875 16.003907 61.207031 19.992188h23.257813s6.386718-27.332031 6.386718-53.332031c0-17.980469 5.011719-36.398438 8.105469-55.855469.109375-.675781.6875-1.175781 1.371094-1.175781.753906 0 1.367187.585937 1.394531 1.335937.335938 8.84375 3.351562 25.539063 4.40625 35.046875l60.078125-7.8125c.777344-16.660156-2.667969-46.925781-10.121094-73.722656 0 0 10.167969-94.464844-61.3125-100.308594zm0 0" fill="#fbc840"/><path d="m149.378906 277.585938c.121094-.195313.230469-.382813.351563-.578126l10.757812 9.652344s-13.484375 11.6875-21.117187 29.375c0-12.617187 3.039062-25.042968 8.859375-36.238281zm0 0" fill="#f9b50b"/><path d="m164.535156 214.992188s16.628906 3.921874 25.835938 17.484374c0 23.648438-7.660156 46.097657-12.507813 57.941407-1.789062 4.371093-7.339843 5.6875-10.894531 2.574219l-17.589844-15.40625c18.652344-41.71875 15.15625-62.59375 15.15625-62.59375zm0 0" fill="#ffebb3"/><path d="m135.851562 101.144531c-7.546874 2.441407-11.402343 11.484375-6.683593 18.921875 5.726562 9.015625 16.570312 20.832032 30.214843 20.832032 13.644532 0 18.273438-13.28125 18.273438-21.320313s-4.992188-21.320313-22.539062-21.320313c-8.152344 0-14.648438 1.394532-19.265626 2.886719zm0 0" fill="#3c2b8e"/><path d="m104.914062 101.144531c7.550782 2.441407 11.40625 11.484375 6.683594 18.921875-5.726562 9.015625-16.566406 20.832032-30.214844 20.832032-13.644531 0-18.273437-13.28125-18.273437-21.320313s4.996094-21.320313 22.539063-21.320313c8.152343 0 14.648437 1.394532 19.265624 2.886719zm0 0" fill="#3c2b8e"/><path d="m144.335938 117.398438c-4.722657-7.433594-.863282-16.480469 6.683593-18.921876.113281-.035156.246094-.070312.363281-.109374-6.414062.34375-11.644531 1.519531-15.53125 2.777343-7.546874 2.441407-11.402343 11.488281-6.683593 18.921875 5.726562 9.011719 16.570312 20.832032 30.214843 20.832032 4.179688 0 7.507813-1.25 10.121094-3.207032-11.265625-2.410156-20.167968-12.421875-25.167968-20.292968zm0 0" fill="#2c217c"/><path d="m78.277344 116.910156c0-5.777344 2.578125-14.261718 10.542968-18.578125-1.03125-.046875-2.082031-.074219-3.171874-.074219-17.542969 0-22.539063 13.277344-22.539063 21.320313 0 8.039063 4.632813 21.320313 18.277344 21.320313 4.222656 0 8.175781-1.136719 11.792969-2.96875-11.042969-1.988282-14.902344-13.683594-14.902344-21.019532zm0 0" fill="#2c217c"/><path d="m124.34375 114.957031c-2.40625-1.566406-5.515625-1.566406-7.921875 0-.078125.050781-.15625.097657-.238281.144531-2.300782 1.316407-5.234375.515626-6.550782-1.785156-1.28125-2.238281-.5625-5.074218 1.59375-6.4375 5.585938-3.609375 12.78125-3.597656 18.355469.03125 2.222657 1.445313 2.851563 4.421875 1.402344 6.644532-1.445313 2.222656-4.417969 2.851562-6.640625 1.402343zm0 0" fill="#554cbf"/><path d="m299.875 166.472656 73.679688 11.480469 73.675781-11.480469s11.242187-3.558594 11.242187-13.230468c0-9.675782-40.5-24.722657-84.917968-24.722657 0 0-83.691407 4.035157-83.691407 24.71875 0 0-.671875 8.652344 10.011719 13.234375zm0 0" fill="#f9b50b"/><path d="m270.332031 457.144531c-.300781-4.726562-.03125-9.46875.859375-14.121093 2.875-15.050782 3.296875-31.078126 3.402344-45.207032 0-.566406.457031-1.027344 1.023438-1.027344.527343 0 .964843.390626 1.019531.914063.984375 9.695313 2.101562 21.90625 6.367187 32.90625 4.390625 11.332031 7.117188 23.238281 8.132813 35.347656l3.449219 41.121094c104.085937-21.167969 184.183593-108.324219 194.726562-215.886719-7.136719-4.484375-14.042969-6.421875-18.335938-7.246094 0 0-69.1875-12.625-69.1875-37.164062 0-3.988281 0-2.792969 0-5.375-6.953124 6.214844-18.871093 14.128906-28.691406 14.367188-9.816406-.238282-21.734375-8.152344-28.6875-14.367188v5.375c0 24.539062-69.191406 37.164062-69.191406 37.164062-8.429688 1.621094-26.933594 7.507813-37.472656 28.589844-13.695313 27.390625-12.738282 88.726563-7.90625 134.183594.191406 1.765625.292968 3.53125.296875 5.304688l.203125 59.496093c5.015625.304688 10.066406.480469 15.160156.480469 7.378906 0 14.679688-.347656 21.894531-.984375.574219-21.21875 3.648438-42.726563 2.9375-53.871094zm0 0" fill="#fe9d9a"/><path d="m373.097656 255.777344c-9.816406-.238282-21.738281-8.15625-28.6875-14.371094v5.375c0 12.085938-16.789062 21.28125-33.824218 27.503906 4.410156 8.351563 5.121093 14.972656 5.121093 14.972656 5.890625 4.359376 8.363281 10.675782 8.984375 17.292969 15.886719-6.359375 31.9375-13.265625 38.667969-17.667969 9.058594-5.929687 12.066406-21.613281 13.011719-33.460937-1.109375.195313-2.203125.328125-3.273438.355469zm0 0" fill="#f98f8f"/><path d="m454.609375 394.71875c-3.246094-7.402344-5.660156-17.269531-5.660156-30.257812 0-24.792969-1.800781-64.230469-18.007813-92.035157-10.605468-16.074219-24.324218-14.699219-24.324218-14.699219s28.855468 19.230469 4.53125 71.988282c-11.421876 24.777344-27.351563 51.101562-33.222657 63.636718-.71875 1.535157-2.066406 2.726563-3.726562 3.078126-2.480469.519531-4.851563-.769532-5.875-2.964844-5.828125-12.488282-21.820313-38.898438-33.277344-63.75-24.324219-52.757813 4.53125-71.988282 4.53125-71.988282s-13.71875-1.375-24.324219 14.699219c-16.207031 27.804688-18.003906 67.242188-18.003906 92.035157 0 24.738281-8.757812 38.167968-15.328125 44.761718-4.289063 4.308594-2.488281 10.113282-2.085937 16.492188l8.359374 82.570312c70.398438-12.371094 130.441407-54.800781 166.414063-113.566406zm0 0" fill="#d93a59"/><path d="m434.445312 233.496094c-4.671874-16.355469-6.605468-29.125-7.027343-38.992188-3.546875 12.800782-8.179688 24.132813-13.828125 33.792969-3.257813 5.574219-7.300782 10.566406-11.996094 14.894531-7.015625 40.925782 6.105469 71.757813 16.425781 88.605469 2.175781 3.550781 7.972657 2.0625 7.917969-2.039063-.464844-33.929687 21.082031-52.226562 8.507812-96.261718zm0 0" fill="#483ba8"/><path d="m419.144531 248.882812c8.644531 0 16.058594 5.261719 19.214844 12.753907.171875-8.257813-.859375-17.433594-3.914063-28.144531-4.671874-16.355469-6.609374-29.121094-7.027343-38.988282-3.546875 12.796875-8.179688 24.128906-13.828125 33.792969-3.257813 5.574219-7.300782 10.566406-11.996094 14.894531-1.140625 6.652344-1.742188 13.03125-1.914062 19.132813 2.988281-7.851563 10.566406-13.441407 19.464843-13.441407zm0 0" fill="#3c2b8e"/><path d="m317.886719 186.414062s-3.449219-21.835937.523437-34.84375c-3.605468-2.402343-10.574218-3.574218-13.707031-.511718-6.414063 6.269531-1.714844 15.742187.535156 21.722656.691407 1.839844 1.136719 3.695312 1.339844 5.558594.4375 4.042968 2.628906 9.960937 11.722656 9.824218-.140625-.585937-.28125-1.160156-.414062-1.75zm0 0" fill="#f98f8f"/><path d="m442.398438 151.058594c-3.132813-3.0625-10.101563-1.890625-13.707032.511718 3.972656 13.007813.523438 34.84375.523438 34.84375-.132813.589844-.273438 1.164063-.410156 1.75 9.089843.136719 11.285156-5.78125 11.722656-9.824218.199218-1.863282.644531-3.71875 1.335937-5.558594 2.25-5.980469 6.949219-15.453125.535157-21.722656zm0 0" fill="#f98f8f"/><path d="m318.410156 151.570312c.789063-2.582031 1.871094-4.816406 3.328125-6.464843 1.316407-1.480469 2.140625-3.3125 2.199219-5.273438.34375-11.453125 4.746094-46.753906 47.023438-30.546875 1.664062.636719 3.515624.636719 5.179687 0 42.277344-16.207031 46.679687 19.089844 47.023437 30.546875.058594 1.960938.882813 3.792969 2.199219 5.273438 1.460938 1.648437 2.539063 3.882812 3.328125 6.464843 2.144532-1.425781 5.46875-2.410156 8.476563-2.339843v-26c0-21.066407-11.746094-40.589844-30.804688-50.425781-8.707031-4.488282-19.53125-7.605469-32.808593-7.605469-13.28125 0-24.109376 3.117187-32.8125 7.605469-19.058594 9.835937-30.804688 29.359374-30.804688 50.425781v26c3.003906-.070313 6.332031.914062 8.472656 2.339843zm0 0" fill="#3c2b8e"/><path d="m425.699219 144.804688c-1.308594-1.476563-2.03125-3.203126-2.082031-4.988282-.203126-6.800781-1.921876-23.441406-13.453126-31.121094-8.183593-5.449218-19.683593-5.394531-34.1875.167969-1.566406.601563-3.289062.601563-4.851562 0-14.503906-5.558593-26.003906-5.617187-34.1875-.171875-11.53125 7.683594-13.25 24.324219-13.453125 31.125-.050781 1.789063-.773437 3.511719-2.085937 4.988282-7.222657 8.140624-5.640626 31.917968-3.953126 41.707031 3.730469 16.472656 9.136719 30.835937 16.0625 42.691406 7.035157 12.035156 17.683594 21.394531 30.800782 27.070313 5.875 2.542968 12.609375 2.542968 18.484375 0 13.117187-5.675782 23.765625-15.035157 30.796875-27.070313 6.929687-11.851563 12.332031-26.214844 16.074218-42.71875 1.617188-10.292969 3.34375-33.445313-3.964843-41.679687zm0 0" fill="#ffbaae"/><path d="m365.457031 229.203125c-4.660156-11.855469-8.292969-26.21875-10.804687-42.691406-1.132813-9.789063-2.195313-33.566407 2.660156-41.707031.882812-1.476563 1.367188-3.203126 1.402344-4.988282.136718-6.800781 1.289062-23.445312 9.050781-31.125.269531-.265625.546875-.511718.828125-.75-13.3125-4.621094-23.957031-4.375-31.65625.75-11.53125 7.679688-13.25 24.324219-13.453125 31.125-.050781 1.785156-.773437 3.511719-2.085937 4.988282-7.222657 8.140624-5.640626 31.917968-3.953126 41.707031 3.730469 16.472656 9.136719 30.835937 16.0625 42.691406 7.03125 12.035156 17.683594 21.394531 30.800782 27.070313 5.875 2.542968 12.609375 2.542968 18.484375 0 .683593-.296876 1.351562-.605469 2.019531-.921876-8.195312-5.738281-14.871094-14.738281-19.355469-26.148437zm0 0" fill="#fe9d9a"/><path d="m373.550781 113.292969c25.773438 0 49.640625 2.230469 69.144531 6.023437l-8.917968-49.226562c-1.335938-7.027344-5.628906-12.914063-11.542969-15.832032-16.089844-7.945312-32.457031-11.945312-48.683594-12.238281-16.222656.292969-32.59375 4.292969-48.679687 12.238281-5.914063 2.917969-10.207032 8.804688-11.546875 15.832032l-8.917969 49.226562c19.507812-3.792968 43.371094-6.023437 69.144531-6.023437zm0 0" fill="#fbc840"/><path d="m336.53125 65.78125c1.097656-7.648438 4.621094-14.046875 9.472656-17.222656 2.332032-1.527344 4.671875-2.910156 7.015625-4.171875-9.421875 2-18.832031 5.269531-28.148437 9.871093-5.914063 2.917969-10.207032 8.804688-11.546875 15.832032l-8.917969 49.226562c7.792969-1.515625 16.289062-2.777344 25.320312-3.75zm0 0" fill="#f9b50b"/><path d="m373.550781 93.351562c-24.148437 0-46.621093 1.957032-65.402343 5.328126l-3.742188 20.636718c19.507812-3.792968 43.371094-6.023437 69.144531-6.023437 25.773438 0 49.640625 2.230469 69.144531 6.023437l-3.738281-20.636718c-18.78125-3.367188-41.253906-5.328126-65.40625-5.328126zm0 0" fill="#f97396"/><path d="m332.492188 95.335938c-8.625.863281-16.789063 1.988281-24.34375 3.34375-.34375 1.878906-3.347657 18.472656-3.742188 20.636718 6.304688-1.253906 15.449219-2.683594 25.320312-3.75zm0 0" fill="#f7577a"/><path d="m400.089844 114.105469c1.007812-.019531 11.035156 2.644531 22.539062-2.558594-1.0625-1.339844-1.605468-3.09375-1.359375-4.914063l1.019531-7.542968c.246094-1.820313 1.238282-3.363282 2.617188-4.375-9.671875-8.035156-20.03125-8.160156-21.046875-8.460938-1.160156-.15625-2.230469.660156-2.386719 1.820313-1.019531 7.519531-2.183594 16.121093-3.203125 23.640625-.15625 1.164062.660157 2.230468 1.820313 2.390625zm0 0" fill="#f7577a"/><path d="m422.289062 99.089844-1.019531 7.542968c-.246093 1.820313.296875 3.570313 1.359375 4.914063-6.921875 3.132813-13.308594 3.414063-17.515625 3.144531.171875-.042968.347657-.082031.519531-.128906 8.011719-2.214844 12.710938-10.507812 10.496094-18.515625-1.074218-3.886719-3.585937-6.992187-6.792968-8.90625 4.113281.914063 9.957031 2.910156 15.574218 7.574219-1.382812 1.011718-2.375 2.554687-2.621094 4.375zm0 0" fill="#d93a59"/><path d="m440.898438 101.609375-1.019532 7.542969c-.246094 1.820312-1.238281 3.363281-2.621094 4.375 9.710938 8.074218 20.085938 8.175781 21.050782 8.460937 1.164062.15625 2.230468-.660156 2.386718-1.820312 1.019532-7.519531 2.183594-16.121094 3.203126-23.640625.15625-1.164063-.65625-2.230469-1.820313-2.390625-1.054687.019531-11.078125-2.613281-22.539063 2.558593 1.0625 1.34375 1.605469 3.09375 1.359376 4.914063zm0 0" fill="#f7577a"/><path d="m457.261719 94.132812c-7.929688 2.191407-12.578125 10.398438-10.386719 18.328126 1.066406 3.847656 3.546875 6.917968 6.722656 8.816406-4.128906-.832032-10.359375-2.777344-16.339844-7.75 1.382813-1.011719 2.375-2.554688 2.621094-4.375l1.019532-7.542969c.246093-1.820313-.296876-3.570313-1.359376-4.914063 8.171876-3.6875 15.609376-3.40625 19.589844-2.949218-.621094.089844-1.246094.214844-1.867187.386718zm0 0" fill="#d93a59"/><path d="m425.929688 113.84375 7.539062 1.019531c3.554688.480469 6.855469-2.03125 7.339844-5.585937l1.019531-7.539063c.480469-3.558593-2.035156-6.859375-5.589844-7.339843l-7.539062-1.019532c-3.554688-.480468-6.855469 2.03125-7.335938 5.585938l-1.023437 7.539062c-.480469 3.554688 2.035156 6.859375 5.589844 7.339844zm0 0" fill="#f97396"/><path d="m431.179688 100.234375-1.039063 7.660156c-.414063 3.050781 1.351563 5.910157 4.082031 7.023438-.25-.003907-.5-.019531-.753906-.054688l-7.539062-1.019531c-3.554688-.480469-6.070313-3.785156-5.589844-7.339844l1.023437-7.539062c.480469-3.554688 3.78125-6.066406 7.335938-5.585938l7.542969 1.019532c.25.035156.5.085937.742187.148437-2.933594.34375-5.394531 2.632813-5.804687 5.6875zm0 0" fill="#f7577a"/><path d="m373.550781 109.285156c-70.65625 0-127.933593 14.085938-127.933593 31.464844 0 10.628906 21.4375 20.027344 54.257812 25.722656-4.601562-3.148437-7.164062-6.640625-7.164062-10.320312 0-13.832032 36.195312-25.042969 80.839843-25.042969 44.648438 0 80.839844 11.210937 80.839844 25.042969 0 3.679687-2.5625 7.171875-7.160156 10.320312 32.816406-5.695312 54.253906-15.09375 54.253906-25.722656 0-17.378906-57.277344-31.464844-127.933594-31.464844zm0 0" fill="#fcdb75"/><path d="m245.5 512c34.519531 0 67.367188-7.15625 97.15625-20.035156-.078125-57.171875-30.878906-63.988282-68.511719-63.988282h-47.972656c-37.683594 0-68.515625 6.832032-68.515625 64.195313v3.589844c27.273438 10.480469 56.882812 16.238281 87.84375 16.238281zm0 0" fill="#52b0f5"/><path d="m250.15625 465.21875c16.511719 0 30.023438-13.511719 30.023438-30.023438v-7.152343c-1.988282-.046875-4.003907-.066407-6.035157-.066407h-47.972656c-2.035156 0-4.050781.023438-6.039063.066407v7.152343c0 16.511719 13.511719 30.023438 30.023438 30.023438zm0 0" fill="#82c6f9"/><path d="m191.324219 490.023438c0-34.53125 9.097656-52.535157 23.449219-61.78125-32.308594 1.679687-57.117188 12.472656-57.117188 63.929687v3.589844c10.871094 4.179687 22.117188 7.589843 33.667969 10.203125zm0 0" fill="#2299f2"/><path d="m250.15625 451.746094c-11.765625 0-21.390625-9.625-21.390625-21.386719v-17.417969c0-11.765625 9.628906-21.390625 21.390625-21.390625 11.765625 0 21.390625 9.625 21.390625 21.390625v17.417969c0 11.761719-9.625 21.386719-21.390625 21.386719zm0 0" fill="#f98f8f"/><path d="m317.707031 289.257812s-4.820312-45.03125-67.550781-48.410156c-62.730469 3.378906-67.550781 48.410156-67.550781 48.410156-18.761719 13.882813-2.855469 47.660157-2.855469 47.660157h140.8125s15.910156-33.777344-2.855469-47.660157zm0 0" fill="#3c2b8e"/><path d="m257.710938 336.917969c1.859374-17.199219 1.4375-39.558594-9.707032-53.699219-20.1875-25.609375 2.152344-42.371094 2.152344-42.371094-62.730469 3.378906-67.550781 48.410156-67.550781 48.410156-18.761719 13.882813-2.855469 47.660157-2.855469 47.660157zm0 0" fill="#2c217c"/><path d="m325.742188 331.308594c-6.492188-3.496094-12.03125-1.925782-15.4375-.097656 3.136718 19.675781 2.273437 34.734374-.589844 46.171874 15.355468 2.714844 16.117187-14.6875 17.554687-19.6875 1.523438-5.316406 9.335938-20.542968-1.527343-26.386718zm0 0" fill="#f98f8f"/><path d="m190.007812 331.210938c-3.40625-1.828126-8.941406-3.398438-15.4375.097656-10.863281 5.84375-3.046874 21.070312-1.523437 26.386718 1.433594 5 2.195313 22.402344 17.550781 19.6875-2.863281-11.4375-3.722656-26.496093-.589844-46.171874zm0 0" fill="#f98f8f"/><path d="m310.546875 329.066406c-9.035156-52.78125-60.390625-45.648437-60.390625-45.648437s-51.351562-7.132813-60.386719 45.648437c-9.035156 52.777344 10.234375 73.179688 21.195313 79.523438 6.167968 3.566406 11.425781 7.664062 14.460937 10.292968 14 12.117188 35.445313 12.132813 49.460938 0 3.039062-2.628906 8.296875-6.726562 14.464843-10.292968 10.960938-6.339844 30.226563-26.742188 21.195313-79.523438zm0 0" fill="#ffbaae"/><path d="m249.898438 418.664062c-2.1875-2.691406-5.976563-6.890624-10.417969-10.546874-7.894531-6.492188-21.773438-27.390626-15.265625-81.449219 3.210937-26.675781 13.84375-38.40625 23.789062-43.449219-9.820312-.648438-50.3125-.457031-58.234375 45.847656-9.035156 52.777344 10.234375 73.179688 21.191407 79.523438 6.167968 3.566406 11.429687 7.664062 14.464843 10.292968 9.730469 8.421876 23.054688 10.992188 34.980469 7.707032-3.800781-1.472656-7.410156-4.109375-10.507812-7.925782zm0 0" fill="#fe9d9a"/><path d="m82.964844 256.023438c-9.023438-27.34375-6.734375-41.03125-6.734375-41.03125s-16.628907 3.921874-25.835938 17.484374c0 12.34375 2.089844 24.355469 4.773438 34.707032 3.226562-12.039063 17.109375-17.652344 27.796875-11.160156zm0 0" fill="#fcdb75"/><path d="m157.800781 256.023438c9.023438-27.34375 6.734375-41.03125 6.734375-41.03125s16.628906 3.921874 25.835938 17.484374c0 12.34375-2.089844 24.355469-4.769532 34.707032-3.230468-12.039063-17.113281-17.652344-27.800781-11.160156zm0 0" fill="#fcdb75"/><path d="m34.824219 238.863281c-16.15625 7.476563-20.59375 12.566407-28.203125 13.1875-1.964844.160157-3.855469.398438-5.699219.691407-.269531 4.71875-.421875 9.46875-.421875 14.257812 0 21.824219 2.859375 42.980469 8.214844 63.117188 4.925781-72.167969 26.109375-91.253907 26.109375-91.253907zm0 0" fill="#f9b50b"/><path d="m359.289062 131.503906c-.003906 0-.011718-.003906-.019531-.003906-42.917969-3.578125-28.941406-20.367188-28.9375-20.371094-49.386719 4.359375-84.714843 15.972656-84.714843 29.621094 0 10.628906 21.4375 20.027344 54.257812 25.722656-4.601562-3.148437-7.164062-6.640625-7.164062-10.320312 0-12.324219 28.738281-22.5625 66.578124-24.648438zm0 0" fill="#fbc840"/></svg>