<svg xmlns="http://www.w3.org/2000/svg" height="600pt" version="1.1" viewBox="-5 1 600 600.63901" width="600pt">
<g id="surface1">
<path d="M 92 50.933594 L 499.457031 50.933594 C 550.09375 50.933594 591.136719 91.972656 591.136719 142.609375 C 591.136719 193.246094 550.09375 234.289062 499.457031 234.289062 L 92 234.289062 C 41.363281 234.289062 0.324219 193.246094 0.324219 142.609375 C 0.324219 91.972656 41.363281 50.933594 92 50.933594 Z M 92 50.933594 " style=" stroke:none;fill-rule:nonzero;fill:rgb(94.117647%,64.313725%,20.784314%);fill-opacity:1;" />
<path d="M 295.730469 0 C 346.367188 0 387.40625 41.042969 387.40625 91.679688 L 387.40625 142.609375 L 204.050781 142.609375 L 204.050781 91.679688 C 204.050781 41.042969 245.09375 0 295.730469 0 Z M 295.730469 0 " style=" stroke:none;fill-rule:nonzero;fill:rgb(98.039216%,70.196078%,28.627451%);fill-opacity:1;" />
<path d="M 204.050781 101.863281 L 387.40625 101.863281 L 387.40625 142.609375 L 204.050781 142.609375 Z M 204.050781 101.863281 " style=" stroke:none;fill-rule:nonzero;fill:rgb(92.941176%,35.294118%,17.647059%);fill-opacity:1;" />
<path d="M 209.378906 234.289062 C 226.1875 281.980469 278.472656 307.007812 326.15625 290.210938 C 352.304688 281.003906 372.863281 260.4375 382.078125 234.289062 Z M 209.378906 234.289062 " style=" stroke:none;fill-rule:nonzero;fill:rgb(99.607843%,78.823529%,63.921569%);fill-opacity:1;" />
<path d="M 489.273438 601 L 489.273438 407.265625 C 489.273438 373.617188 461.992188 346.339844 428.347656 346.339844 L 163.113281 346.339844 L 163.113281 480.464844 L 370.425781 480.464844 L 428.152344 478.761719 L 428.152344 601 Z M 489.273438 601 " style=" stroke:none;fill-rule:nonzero;fill:rgb(97.647059%,72.941176%,56.078431%);fill-opacity:1;" />
<path d="M 336.476562 346.339844 L 254.984375 346.339844 L 163.304688 468.578125 L 163.304688 488.949219 C 163.285156 504.128906 168.949219 518.765625 179.175781 529.96875 C 194.769531 546.429688 203.652344 568.140625 204.050781 590.8125 L 204.050781 601 L 387.40625 601 L 387.40625 590.8125 C 387.804688 568.140625 396.6875 546.429688 412.28125 529.96875 C 422.507812 518.765625 428.171875 504.128906 428.152344 488.949219 L 428.152344 468.578125 Z M 336.476562 346.339844 " style=" stroke:none;fill-rule:nonzero;fill:rgb(97.647059%,72.941176%,56.078431%);fill-opacity:1;" />
<path d="M 254.984375 285.8125 L 254.984375 346.339844 L 336.476562 346.339844 L 336.476562 285.8125 C 310.816406 298.605469 280.644531 298.605469 254.984375 285.8125 Z M 254.984375 285.8125 " style=" stroke:none;fill-rule:nonzero;fill:rgb(97.647059%,72.941176%,56.078431%);fill-opacity:1;" />
<path d="M 92 233.65625 L 92 208.820312 C 92 189.128906 107.964844 173.167969 127.652344 173.167969 C 147.34375 173.167969 163.304688 189.132812 163.304688 208.820312 L 163.304688 514.414062 C 163.304688 534.105469 147.34375 550.066406 127.652344 550.066406 C 107.960938 550.066406 92 534.105469 92 514.414062 L 92 275.035156 C 90.148438 275.035156 61.441406 264.847656 61.441406 264.847656 L 61.441406 234.289062 Z M 92 233.65625 " style=" stroke:none;fill-rule:nonzero;fill:rgb(99.607843%,78.823529%,63.921569%);fill-opacity:1;" />
<path d="M 432.523438 83.8125 L 387.40625 101.863281 C 387.40625 64.949219 409.878906 31.753906 444.15625 18.050781 L 489.273438 0 C 489.273438 36.917969 466.800781 70.113281 432.523438 83.8125 Z M 432.523438 83.8125 " style=" stroke:none;fill-rule:nonzero;fill:rgb(92.941176%,35.294118%,17.647059%);fill-opacity:1;" />
<path d="M 444.15625 185.679688 L 489.273438 203.730469 C 489.273438 166.8125 466.800781 133.617188 432.523438 119.914062 L 387.40625 101.863281 C 387.40625 138.78125 409.878906 171.976562 444.15625 185.679688 Z M 444.15625 185.679688 " style=" stroke:none;fill-rule:nonzero;fill:rgb(92.941176%,35.294118%,17.647059%);fill-opacity:1;" />
<path d="M 389.445312 417.644531 L 361.941406 346.339844 L 336.476562 346.339844 L 363.980469 417.644531 L 227.234375 417.644531 L 254.984375 346.339844 L 229.621094 346.339844 L 201.871094 417.644531 L 175.53125 452.390625 C 167.59375 462.902344 163.296875 475.707031 163.304688 488.878906 L 163.304688 488.949219 C 163.304688 522.707031 190.667969 550.066406 224.425781 550.066406 L 367.035156 550.066406 C 400.792969 550.066406 428.15625 522.707031 428.15625 488.949219 C 428.15625 475.726562 423.824219 462.882812 415.820312 452.359375 Z M 389.445312 417.644531 " style=" stroke:none;fill-rule:nonzero;fill:rgb(92.941176%,35.294118%,17.647059%);fill-opacity:1;" />
<path d="M 417.96875 417.644531 L 438.339844 417.644531 L 438.339844 601 L 417.96875 601 Z M 417.96875 417.644531 " style=" stroke:none;fill-rule:nonzero;fill:rgb(94.117647%,68.627451%,49.803922%);fill-opacity:1;" />
<path d="M 371.792969 254.660156 C 376.058594 248.324219 379.511719 241.480469 382.078125 234.289062 L 209.378906 234.289062 C 211.945312 241.480469 215.398438 248.324219 219.667969 254.660156 Z M 371.792969 254.660156 " style=" stroke:none;fill-rule:nonzero;fill:rgb(97.647059%,72.941176%,56.078431%);fill-opacity:1;" />
<path d="M 389.445312 417.644531 L 383.414062 402.007812 C 337.617188 493.339844 239.867188 532.75 200.585938 545.238281 C 208.125 548.4375 216.234375 550.078125 224.425781 550.070312 L 367.035156 550.070312 C 400.792969 550.070312 428.152344 522.707031 428.152344 488.949219 C 428.152344 475.726562 423.824219 462.882812 415.816406 452.359375 Z M 389.445312 417.644531 " style=" stroke:none;fill-rule:nonzero;fill:rgb(87.843137%,30.588235%,17.647059%);fill-opacity:1;" />
</g>
</svg>