<svg id="Layer_3" enable-background="new 0 0 64 64" height="512" viewBox="0 0 64 64" width="512" xmlns="http://www.w3.org/2000/svg"><path d="m31 2h2v5h-2z" fill="#4d5d7a"/><path d="m43 48.224-1.904-4.224c-.807-1.965-1.521-3.968-2.14-6l-1.087-4c-1.234-5.153-1.869-10.468-1.869-15.839v-4.161h-8v4.161c0 5.372-.635 10.686-1.869 15.839l-1.087 4c-.619 2.032-1.334 4.035-2.14 6l-1.794 4c-2.433 4.989-5.484 9.695-9.11 14h12v-2c0-4.418 3.582-8 8-8s8 3.582 8 8v2h12c-3.571-4.241-6.585-8.87-9-13.776zm-15-4.224 2-6h4l2 6z" fill="#a8b0bc"/><path d="m28 10h8v4h-8z" fill="#4d5d7a"/><path d="m30 6h4v4h-4z" fill="#8892a0"/><path d="m18 44h28v4h-28z" fill="#4d5d7a"/><path d="m22 34h20v4h-20z" fill="#4d5d7a"/><circle cx="6" cy="51" fill="#78b75b" r="4"/><circle cx="58" cy="51" fill="#78b75b" r="4"/><path d="m15 26c-.034 0-.066.009-.1.01-.459-2.287-2.478-4.01-4.9-4.01s-4.441 1.723-4.9 4.01c-.034-.001-.066-.01-.1-.01-1.657 0-3 1.343-3 3s1.343 3 3 3c.841 0 1.598-.348 2.143-.905.811.567 1.793.905 2.857.905s2.046-.338 2.857-.905c.545.557 1.302.905 2.143.905 1.657 0 3-1.343 3-3s-1.343-3-3-3z" fill="#a1cdfb"/><path d="m59 26c-.034 0-.066.009-.1.01-.459-2.287-2.478-4.01-4.9-4.01s-4.441 1.723-4.9 4.01c-.034-.001-.066-.01-.1-.01-1.657 0-3 1.343-3 3s1.343 3 3 3c.841 0 1.598-.348 2.143-.905.811.567 1.793.905 2.857.905s2.046-.338 2.857-.905c.545.557 1.302.905 2.143.905 1.657 0 3-1.343 3-3s-1.343-3-3-3z" fill="#a1cdfb"/><path d="m5 50h2v11h-2z" fill="#c18e59"/><path d="m57 50h2v11h-2z" fill="#c18e59"/><path d="m36.966 29.552-3.552-3.552 2.586-2.586.226.226c-.083-1.03-.144-2.064-.181-3.1l-.045.046-2.586-2.586 2.586-2.586v-1.414h-1.414l-2.586 2.586-2.586-2.586h-1.414v1.414l2.586 2.586-2.586 2.586-.046-.046c-.036 1.037-.097 2.071-.181 3.101l.227-.227 2.586 2.586-3.552 3.552c-.201 1.182-.434 2.357-.696 3.524l5.662-5.662 5.662 5.662c-.262-1.167-.495-2.342-.696-3.524zm-7.552-7.552 2.586-2.586 2.586 2.586-2.586 2.586z" fill="#c1c8d1"/><path d="m2 60h60v2h-60z" fill="#976947"/></svg>