<svg height="508pt" viewBox="-32 0 508 508" width="508pt" xmlns="http://www.w3.org/2000/svg"><path d="m416 460c0 2.199219-1.800781 4-4 4h-408c-2.199219 0-4-1.800781-4-4v-256.007812c0-2.199219 1.800781-4 4-4h408c2.199219 0 4 1.800781 4 4zm0 0" fill="#e6e9ed"/><path d="m192 428c0 2.199219-1.800781 4-4 4h-152c-2.199219 0-4-1.800781-4-4v-96c0-2.199219 1.800781-4 4-4h152c2.199219 0 4 1.800781 4 4zm0 0" fill="#5d9cec"/><path d="m416 208v-8c0-4.398438-3.601562-8-8-8h-400c-4.398438 0-8 3.601562-8 8v8zm0 0" fill="#ccd1d9"/><path d="m384 300c0 2.199219-1.800781 4-4 4h-344c-2.199219 0-4-1.800781-4-4v-56c0-2.199219 1.800781-4 4-4h344c2.199219 0 4 1.800781 4 4zm0 0" fill="#ffce54"/><path d="m111.550781 419.886719-7.550781 12.113281h-40l28.113281-40zm0 0" fill="#f5f7fa"/><path d="m184 432h-80l40-64zm0 0" fill="#fff"/><path d="m72 356c0 6.628906-5.371094 12-12 12s-12-5.371094-12-12 5.371094-12 12-12 12 5.371094 12 12zm0 0" fill="#ffce54"/><path d="m71.785156 106.160156v9.839844c0 2.480469-18.25 9.601562-18.25 9.601562-8.542968-8.640624-13.75-20.488281-13.75-33.601562 0-26.480469 21.511719-48 48-48 26.558594 0 48 21.519531 48 48 0 13.121094-5.199218 24.960938-13.769531 33.601562 0 0-18.230469-7.128906-18.230469-9.601562v-9.839844c4.558594-5.519531-36.570312-5.519531-32 0zm0 0" fill="#656d78"/><path d="m71.785156 106.160156c4.949219 5.917969 11.277344 9.839844 16 9.839844 4.71875 0 11.03125-3.921875 16-9.839844v9.839844c0 2.480469 18.230469 9.601562 18.230469 9.601562-8.640625 8.871094-20.800781 14.398438-34.230469 14.398438-13.359375 0-25.511718-5.519531-34.25-14.398438 0 0 18.25-7.128906 18.25-9.601562zm0 0" fill="#48cfad"/><path d="m87.785156 120c-4.722656 0-11.050781-3.921875-16-9.839844-4.5625-5.511718-8-12.71875-8-20.160156 0-15.679688 10.800782-26 24-26 13.277344 0 24 10.320312 24 26 0 7.441406-3.441406 14.640625-8 20.160156-4.96875 5.917969-11.28125 9.839844-16 9.839844zm0 0" fill="#eac6bb"/><path d="m312 106.160156v9.839844c0 2.480469-18.230469 9.601562-18.230469 9.601562-8.5625-8.640624-13.769531-20.488281-13.769531-33.601562 0-26.480469 21.527344-48 48-48 26.558594 0 48 21.519531 48 48 0 13.121094-5.183594 24.960938-13.753906 33.601562 0 0-18.246094-7.128906-18.246094-9.601562v-9.839844c4.558594-5.519531-36.558594-5.519531-32 0zm0 0" fill="#656d78"/><path d="m312 106.160156c4.96875 5.917969 11.28125 9.839844 16 9.839844s11.046875-3.921875 16-9.839844v9.839844c0 2.480469 18.246094 9.601562 18.246094 9.601562-8.636719 8.871094-20.8125 14.398438-34.246094 14.398438-13.359375 0-25.511719-5.519531-34.230469-14.398438 0 0 18.230469-7.128906 18.230469-9.601562zm0 0" fill="#48cfad"/><path d="m328 120c-4.71875 0-11.03125-3.921875-16-9.839844-4.558594-5.511718-8-12.71875-8-20.160156 0-15.679688 10.816406-26 24-26 13.28125 0 24 10.320312 24 26 0 7.441406-3.441406 14.640625-8 20.160156-4.953125 5.917969-11.28125 9.839844-16 9.839844zm0 0" fill="#eac6bb"/><path d="m192 62.160156v9.839844c0 2.480469-18.230469 9.601562-18.230469 9.601562-8.570312-8.640624-13.769531-20.480468-13.769531-33.601562 0-26.480469 21.527344-48 48-48 26.558594 0 48 21.519531 48 48 0 13.121094-5.183594 24.960938-13.753906 33.601562 0 0-18.246094-7.128906-18.246094-9.601562v-9.839844c4.558594-5.519531-36.558594-5.519531-32 0zm0 0" fill="#656d78"/><path d="m192 62.160156c4.96875 5.917969 11.28125 9.839844 16 9.839844s11.046875-3.921875 16-9.839844v9.839844c0 2.480469 18.246094 9.601562 18.246094 9.601562-8.636719 8.871094-20.8125 14.398438-34.246094 14.398438-13.359375 0-25.511719-5.519531-34.230469-14.398438 0 0 18.230469-7.128906 18.230469-9.601562zm0 0" fill="#5d9cec"/><path d="m208 76c-4.71875 0-11.03125-3.921875-16-9.839844-4.558594-5.511718-8-12.71875-8-20.160156 0-15.679688 10.816406-26 24-26 13.28125 0 24 10.320312 24 26 0 7.441406-3.441406 14.640625-8 20.160156-4.953125 5.917969-11.28125 9.839844-16 9.839844zm0 0" fill="#eac6bb"/><path d="m12.046875 204c-2.207031 0-4.039063-1.792969-4.039063-4s1.753907-4 3.953126-4h.085937c2.199219 0 4 1.792969 4 4s-1.800781 4-4 4zm0 0" fill="#e6e9ed"/><path d="m28.046875 204c-2.207031 0-4.039063-1.792969-4.039063-4s1.753907-4 3.953126-4h.085937c2.199219 0 4 1.792969 4 4s-1.800781 4-4 4zm0 0" fill="#e6e9ed"/><path d="m44.046875 204c-2.207031 0-4.039063-1.792969-4.039063-4s1.753907-4 3.953126-4h.085937c2.199219 0 4 1.792969 4 4s-1.800781 4-4 4zm0 0" fill="#e6e9ed"/><path d="m379.992188 336h-155.992188c-2.207031 0-4-1.792969-4-4s1.792969-4 4-4h155.992188c2.207031 0 4 1.792969 4 4s-1.792969 4-4 4zm0 0" fill="#ccd1d9"/><path d="m379.992188 360h-155.992188c-2.207031 0-4-1.792969-4-4s1.792969-4 4-4h155.992188c2.207031 0 4 1.792969 4 4s-1.792969 4-4 4zm0 0" fill="#ccd1d9"/><path d="m379.992188 384h-155.992188c-2.207031 0-4-1.792969-4-4s1.792969-4 4-4h155.992188c2.207031 0 4 1.792969 4 4s-1.792969 4-4 4zm0 0" fill="#ccd1d9"/><path d="m379.992188 408h-155.992188c-2.207031 0-4-1.792969-4-4s1.792969-4 4-4h155.992188c2.207031 0 4 1.792969 4 4s-1.792969 4-4 4zm0 0" fill="#ccd1d9"/><path d="m379.992188 432h-155.992188c-2.207031 0-4-1.792969-4-4s1.792969-4 4-4h155.992188c2.207031 0 4 1.792969 4 4s-1.792969 4-4 4zm0 0" fill="#ccd1d9"/><path d="m344 268h-272c-2.207031 0-4-1.792969-4-4s1.792969-4 4-4h272c2.207031 0 4 1.792969 4 4s-1.792969 4-4 4zm0 0" fill="#f6bb42"/><path d="m296 284h-176c-2.207031 0-4-1.792969-4-4s1.792969-4 4-4h176c2.207031 0 4 1.792969 4 4s-1.792969 4-4 4zm0 0" fill="#f6bb42"/><g fill="#ccd1d9"><path d="m240 171.984375c-1.167969 0-2.335938-.511719-3.128906-1.503906-1.375-1.726563-1.101563-4.242188.625-5.625l40-31.984375c1.742187-1.367188 4.246094-1.085938 5.625.625 1.375 1.726562 1.101562 4.238281-.625 5.625l-40 31.984375c-.734375.589843-1.625.878906-2.496094.878906zm0 0"/><path d="m240 171.984375c-2.207031 0-4-1.792969-4-4v-7.984375c0-2.207031 1.792969-4 4-4s4 1.792969 4 4v7.984375c0 2.207031-1.792969 4-4 4zm0 0"/><path d="m248 172h-8c-2.207031 0-4-1.792969-4-4s1.792969-4 4-4h8c2.207031 0 4 1.792969 4 4s-1.792969 4-4 4zm0 0"/><path d="m176 171.984375c-.871094 0-1.761719-.289063-2.503906-.871094l-40-31.984375c-1.726563-1.386718-2-3.898437-.625-5.625 1.386718-1.710937 3.898437-1.992187 5.625-.625l40 31.984375c1.726562 1.382813 2 3.898438.625 5.625-.785156.984375-1.953125 1.496094-3.121094 1.496094zm0 0"/><path d="m176 171.984375c-2.207031 0-4-1.792969-4-4v-7.984375c0-2.207031 1.792969-4 4-4s4 1.792969 4 4v7.984375c0 2.207031-1.792969 4-4 4zm0 0"/><path d="m176 172h-8c-2.207031 0-4-1.792969-4-4s1.792969-4 4-4h8c2.207031 0 4 1.792969 4 4s-1.792969 4-4 4zm0 0"/><path d="m208 163.992188c-2.207031 0-4-1.792969-4-4v-47.992188c0-2.207031 1.792969-4 4-4s4 1.792969 4 4v47.992188c0 2.207031-1.792969 4-4 4zm0 0"/><path d="m208 163.992188c-1.023438 0-2.046875-.390626-2.832031-1.167969-1.558594-1.558594-1.558594-4.097657 0-5.65625l5.664062-5.664063c1.558594-1.558594 4.097657-1.558594 5.65625 0 1.558594 1.558594 1.558594 4.097656 0 5.65625l-5.664062 5.664063c-.777344.777343-1.800781 1.167969-2.824219 1.167969zm0 0"/><path d="m208 163.992188c-1.023438 0-2.046875-.390626-2.832031-1.167969l-5.664063-5.664063c-1.558594-1.558594-1.558594-4.097656 0-5.65625s4.097656-1.558594 5.65625 0l5.664063 5.664063c1.558593 1.558593 1.558593 4.097656 0 5.65625-.777344.777343-1.800781 1.167969-2.824219 1.167969zm0 0"/></g><path d="m444 444c0 35.347656-28.652344 64-64 64s-64-28.652344-64-64 28.652344-64 64-64 64 28.652344 64 64zm0 0" fill="#f6bb42"/><path d="m380 479.992188c-2.207031 0-4 1.792968-4 4v23.808593c1.328125.085938 2.648438.199219 4 .199219s2.671875-.121094 4-.199219v-23.808593c0-2.207032-1.792969-4-4-4zm0 0" fill="#edab37"/><path d="m420.007812 463.425781c-2.207031 0-4 1.789063-4 4v29.476563c2.847657-1.941406 5.503907-4.140625 8-6.503906v-22.964844c0-2.226563-1.792968-4.007813-4-4.007813zm0 0" fill="#edab37"/><path d="m339.992188 463.425781c-2.207032 0-4 1.789063-4 4v22.964844c2.496093 2.371094 5.152343 4.5625 8 6.503906v-29.480469c0-2.207031-1.792969-3.988281-4-3.988281zm0 0" fill="#edab37"/><path d="m316 428h128v16h-128zm0 0" fill="#f6bb42"/><path d="m444 428c0 35.347656-28.652344 64-64 64s-64-28.652344-64-64 28.652344-64 64-64 64 28.652344 64 64zm0 0" fill="#ffce54"/><path d="m380 456c-2.207031 0-4-1.792969-4-4v-48c0-2.207031 1.792969-4 4-4s4 1.792969 4 4v48c0 2.207031-1.792969 4-4 4zm0 0" fill="#edab37"/></svg>